<?xml version="1.0" encoding="UTF-8"?><svg id="Layer_2" xmlns="http://www.w3.org/2000/svg" xmlns:xlink="http://www.w3.org/1999/xlink" viewBox="0 0 631.21 78"><defs><clipPath id="clippath"><rect width="78" height="78" fill="none"/></clipPath></defs><g id="Layer_1-2"><g><g clip-path="url(#clippath)"><rect width="78" height="78" fill="#92e643"/><rect x="39.87" y="28.6" width="6.93" height="13.87"/><rect x="32.07" y="28.6" width="6.93" height="13.87"/><rect x="39.87" y="43.33" width="13.87" height="34.67"/><polygon points="18.2 43.33 25.13 43.33 39 43.33 39 57.2 39 78 25.13 78 25.13 46.8 18.2 46.8 18.2 78 14.73 78 14.73 57.2 14.73 43.33 18.2 43.33"/><g><path d="M104.3,19.65c1.8,2.89-2.99,5.82-10.6,6.35-6.92,.48-13.53-1.37-15.32-4.03-1.46-2.18-5.16-3.91-9.88-4.89-4.17-.88-9.17-1.18-14.12-.71-10.7,1.02-17.26,5.24-14.66,9.42-1.8-2.89,2.99-5.82,10.6-6.35,6.92-.48,13.53,1.37,15.32,4.03,1.46,2.18,5.16,3.91,9.88,4.89,4.17,.88,9.17,1.18,14.12,.71,10.7-1.02,17.26-5.24,14.66-9.42Z" fill="#fff"/><path d="M71.99,30.09c-2.49,1.26-7.2,1.44-10.3,.38-2.81-.97-3.04-2.66-.79-3.84,1.84-.96,2.45-2.14,1.93-3.24-.45-.97-1.79-1.89-3.94-2.54-4.64-1.41-11.32-1.08-14.92,.74,2.49-1.26,7.2-1.44,10.3-.38,2.81,.97,3.04,2.66,.79,3.84-1.84,.96-2.45,2.14-1.93,3.24,.45,.97,1.79,1.89,3.94,2.54,4.64,1.41,11.32,1.08,14.92-.74Z" fill="#fff"/></g></g><g><path d="M100.21,40.26v-4.5h-4.5v-4.5h9v4.5h13.5v-9h-18v-4.5h-4.5V13.26h4.5v-4.5h22.5v4.5h4.5v4.5h-9v-4.5h-13.5v9h18v4.5h4.5v9h-4.5v4.5h-22.5Z" fill="#92e643"/><path d="M136.21,40.26v-4.5h-4.5V13.26h4.5v-4.5h22.5v4.5h4.5v22.5h-4.5v4.5h-22.5Zm4.5-4.5h13.5V13.26h-13.5v22.5Z" fill="#92e643"/><path d="M172.21,40.26V8.76h9v27h18v4.5h-27Z" fill="#92e643"/><path d="M208.21,26.76v-4.5h27v4.5h-27Z" fill="#92e643"/><path d="M244.21,40.26v-4.5h9V13.26h-9v-4.5h27v4.5h-9v22.5h9v4.5h-27Z" fill="#92e643"/><path d="M275.71,40.26V8.76h9v4.5h4.5v4.5h4.5v4.5h4.5V8.76h9v31.5h-9v-9h-4.5v-4.5h-4.5v-4.5h-4.5v18h-9Z" fill="#92e643"/><path d="M320.71,40.26v-4.5h-4.5v-4.5h-4.5v-13.5h4.5v-4.5h4.5v-4.5h18v4.5h4.5v4.5h-9v-4.5h-9v4.5h-4.5v13.5h4.5v4.5h9v-4.5h9v4.5h-4.5v4.5h-18Z" fill="#92e643"/><path d="M352.21,40.26v-4.5h9V13.26h-9v-4.5h27v4.5h-9v22.5h9v4.5h-27Z" fill="#92e643"/><path d="M383.71,40.26V8.76h9v4.5h4.5v4.5h4.5v4.5h4.5V8.76h9v31.5h-9v-9h-4.5v-4.5h-4.5v-4.5h-4.5v18h-9Z" fill="#92e643"/><path d="M419.71,40.26V8.76h31.5v4.5h-22.5v9h18v4.5h-18v9h22.5v4.5h-31.5Z" fill="#92e643"/><path d="M455.71,40.26V8.76h27v4.5h4.5v13.5h-9v4.5h4.5v4.5h4.5v4.5h-13.5v-4.5h-4.5v-4.5h-4.5v9h-9Zm9-13.5h9v-4.5h4.5V13.26h-13.5v13.5Z" fill="#92e643"/><path d="M491.71,40.26V17.76h4.5v-4.5h4.5v-4.5h13.5v4.5h4.5v4.5h4.5v22.5h-9v-9h-13.5v9h-9Zm9-13.5h13.5v-9h-4.5v-4.5h-4.5v4.5h-4.5v9Z" fill="#92e643"/><path d="M541.21,40.26V13.26h-9v-4.5h27v4.5h-9v27h-9Z" fill="#92e643"/><path d="M568.21,40.26v-4.5h-4.5V13.26h4.5v-4.5h22.5v4.5h4.5v22.5h-4.5v4.5h-22.5Zm4.5-4.5h13.5V13.26h-13.5v22.5Z" fill="#92e643"/><path d="M599.71,40.26V8.76h27v4.5h4.5v13.5h-9v4.5h4.5v4.5h4.5v4.5h-13.5v-4.5h-4.5v-4.5h-4.5v9h-9Zm9-13.5h9v-4.5h4.5V13.26h-13.5v13.5Z" fill="#92e643"/></g><g><path d="M108.81,66.32c0,.55-.05,1.03-.14,1.44h-2.88c-.1-.41-.14-.89-.14-1.44s.05-1.06,.14-1.44h-1.44c-.1-.41-.14-.89-.14-1.44s.05-1.06,.14-1.44h-4.32c.1,.38,.14,.86,.14,1.44s-.05,1.03-.14,1.44h4.32c.1,.38,.14,.86,.14,1.44s-.05,1.03-.14,1.44h-5.76c-.1-.41-.14-.89-.14-1.44s.05-1.06,.14-1.44h-1.44c-.1-.41-.14-.89-.14-1.44s.05-1.06,.14-1.44h1.44c-.1-.41-.14-.89-.14-1.44s.05-1.06,.14-1.44h5.76c-.1-.41-.14-.89-.14-1.44s.05-1.06,.14-1.44h-5.04c-.1-.41-.14-.89-.14-1.44s.05-1.06,.14-1.44h6.48c.1,.38,.14,.86,.14,1.44s-.05,1.03-.14,1.44h1.44c.1,.38,.14,.86,.14,1.44s-.05,1.03-.14,1.44c.1,.38,.14,.86,.14,1.44s-.05,1.03-.14,1.44c.1,.38,.14,.86,.14,1.44s-.05,1.03-.14,1.44h1.44c.1,.38,.14,.86,.14,1.44Z" fill="#fff"/><path d="M136.75,64.88h-1.44c.1,.38,.14,.86,.14,1.44s-.05,1.03-.14,1.44h-7.92c-.1-.41-.14-.89-.14-1.44s.05-1.06,.14-1.44h6.48c-.1-.41-.14-.89-.14-1.44s.05-1.06,.14-1.44h-5.76c-.1-.41-.14-.89-.14-1.44s.05-1.06,.14-1.44h-1.44c-.1-.41-.14-.89-.14-1.44s.05-1.06,.14-1.44h1.44c-.1-.41-.14-.89-.14-1.44s.05-1.06,.14-1.44h7.92c.1,.38,.14,.86,.14,1.44s-.05,1.03-.14,1.44h-6.48c.1,.38,.14,.86,.14,1.44s-.05,1.03-.14,1.44h5.76c.1,.38,.14,.86,.14,1.44s-.05,1.03-.14,1.44h1.44c.1,.38,.14,.86,.14,1.44s-.05,1.03-.14,1.44Z" fill="#fff"/><path d="M151.87,62h-1.08c.1,.38,.14,.86,.14,1.44s-.05,1.03-.14,1.44h-1.8c.1,.38,.14,.86,.14,1.44s-.05,1.03-.14,1.44h-5.76c-.1-.41-.14-.89-.14-1.44s.05-1.06,.14-1.44h-1.8c-.1-.41-.14-.89-.14-1.44s.05-1.06,.14-1.44h-1.08c-.1-.41-.14-.89-.14-1.44s.05-1.06,.14-1.44h1.08c-.1-.41-.14-.89-.14-1.44s.05-1.06,.14-1.44h1.8c-.1-.41-.14-.89-.14-1.44s.05-1.06,.14-1.44h5.76c.1,.38,.14,.86,.14,1.44s-.05,1.03-.14,1.44h1.8c.1,.38,.14,.86,.14,1.44s-.05,1.03-.14,1.44h1.08c.1,.38,.14,.86,.14,1.44s-.05,1.03-.14,1.44Zm-2.88,0c-.1-.41-.14-.89-.14-1.44s.05-1.06,.14-1.44h-1.08c-.1-.41-.14-.89-.14-1.44s.05-1.06,.14-1.44h-3.6c.1,.38,.14,.86,.14,1.44s-.05,1.03-.14,1.44h-1.08c.1,.38,.14,.86,.14,1.44s-.05,1.03-.14,1.44h1.08c.1,.38,.14,.86,.14,1.44s-.05,1.03-.14,1.44h3.6c-.1-.41-.14-.89-.14-1.44s.05-1.06,.14-1.44h1.08Z" fill="#fff"/><path d="M164.97,66.32c0,.55-.05,1.03-.14,1.44h-8.64c-.1-.41-.14-.89-.14-1.44s.05-1.06,.14-1.44h2.88c-.1-.41-.14-.89-.14-1.44s.05-1.06,.14-1.44c-.1-.41-.14-.89-.14-1.44s.05-1.06,.14-1.44c-.1-.41-.14-.89-.14-1.44s.05-1.06,.14-1.44c-.1-.41-.14-.89-.14-1.44s.05-1.06,.14-1.44c-.1-.41-.14-.89-.14-1.44s.05-1.06,.14-1.44h-2.16c-.1-.41-.14-.89-.14-1.44s.05-1.06,.14-1.44h5.04c.1,.38,.14,.86,.14,1.44s-.05,1.03-.14,1.44c.1,.38,.14,.86,.14,1.44s-.05,1.03-.14,1.44c.1,.38,.14,.86,.14,1.44s-.05,1.03-.14,1.44c.1,.38,.14,.86,.14,1.44s-.05,1.03-.14,1.44c.1,.38,.14,.86,.14,1.44s-.05,1.03-.14,1.44c.1,.38,.14,.86,.14,1.44s-.05,1.03-.14,1.44h2.88c.1,.38,.14,.86,.14,1.44Z" fill="#fff"/><path d="M179.95,64.88h-1.44c.1,.38,.14,.86,.14,1.44s-.05,1.03-.14,1.44h-7.92c-.1-.41-.14-.89-.14-1.44s.05-1.06,.14-1.44h6.48c-.1-.41-.14-.89-.14-1.44s.05-1.06,.14-1.44h-5.76c-.1-.41-.14-.89-.14-1.44s.05-1.06,.14-1.44h-1.44c-.1-.41-.14-.89-.14-1.44s.05-1.06,.14-1.44h1.44c-.1-.41-.14-.89-.14-1.44s.05-1.06,.14-1.44h7.92c.1,.38,.14,.86,.14,1.44s-.05,1.03-.14,1.44h-6.48c.1,.38,.14,.86,.14,1.44s-.05,1.03-.14,1.44h5.76c.1,.38,.14,.86,.14,1.44s-.05,1.03-.14,1.44h1.44c.1,.38,.14,.86,.14,1.44s-.05,1.03-.14,1.44Z" fill="#fff"/><path d="M193.77,66.32c0,.55-.05,1.03-.14,1.44h-8.64c-.1-.41-.14-.89-.14-1.44s.05-1.06,.14-1.44h2.88c-.1-.41-.14-.89-.14-1.44s.05-1.06,.14-1.44c-.1-.41-.14-.89-.14-1.44s.05-1.06,.14-1.44c-.1-.41-.14-.89-.14-1.44s.05-1.06,.14-1.44c-.1-.41-.14-.89-.14-1.44s.05-1.06,.14-1.44c-.1-.41-.14-.89-.14-1.44s.05-1.06,.14-1.44h-2.16c-.1-.41-.14-.89-.14-1.44s.05-1.06,.14-1.44h5.04c.1,.38,.14,.86,.14,1.44s-.05,1.03-.14,1.44c.1,.38,.14,.86,.14,1.44s-.05,1.03-.14,1.44c.1,.38,.14,.86,.14,1.44s-.05,1.03-.14,1.44c.1,.38,.14,.86,.14,1.44s-.05,1.03-.14,1.44c.1,.38,.14,.86,.14,1.44s-.05,1.03-.14,1.44c.1,.38,.14,.86,.14,1.44s-.05,1.03-.14,1.44h2.88c.1,.38,.14,.86,.14,1.44Z" fill="#fff"/><path d="M201.91,64.88h3.6c.1,.38,.14,.86,.14,1.44s-.05,1.03-.14,1.44h-5.76c-.1-.41-.14-.89-.14-1.44s.05-1.06,.14-1.44h-1.8c-.1-.41-.14-.89-.14-1.44s.05-1.06,.14-1.44c-.1-.41-.14-.89-.14-1.44s.05-1.06,.14-1.44c-.1-.41-.14-.89-.14-1.44s.05-1.06,.14-1.44c-.1-.41-.14-.89-.14-1.44s.05-1.06,.14-1.44h2.88c.1,.38,.14,.86,.14,1.44s-.05,1.03-.14,1.44c.1,.38,.14,.86,.14,1.44s-.05,1.03-.14,1.44c.1,.38,.14,.86,.14,1.44s-.05,1.03-.14,1.44h1.08c.1,.38,.14,.86,.14,1.44s-.05,1.03-.14,1.44Zm7.7-7.2c0,.55-.05,1.03-.14,1.44,.1,.38,.14,.86,.14,1.44s-.05,1.03-.14,1.44c.1,.38,.14,.86,.14,1.44s-.05,1.03-.14,1.44c.1,.38,.14,.86,.14,1.44s-.05,1.03-.14,1.44h-2.88c-.1-.41-.14-.89-.14-1.44s.05-1.06,.14-1.44h-1.08c-.1-.41-.14-.89-.14-1.44s.05-1.06,.14-1.44h1.08c-.1-.41-.14-.89-.14-1.44s.05-1.06,.14-1.44c-.1-.41-.14-.89-.14-1.44s.05-1.06,.14-1.44c-.1-.41-.14-.89-.14-1.44s.05-1.06,.14-1.44h2.88c.1,.38,.14,.86,.14,1.44s-.05,1.03-.14,1.44c.1,.38,.14,.86,.14,1.44Z" fill="#fff"/><path d="M224.01,57.68c0,.55-.05,1.03-.14,1.44,.1,.38,.14,.86,.14,1.44s-.05,1.03-.14,1.44c.1,.38,.14,.86,.14,1.44s-.05,1.03-.14,1.44c.1,.38,.14,.86,.14,1.44s-.05,1.03-.14,1.44h-1.44c.1,.38,.14,.86,.14,1.44s-.05,1.03-.14,1.44h-1.44c.1,.38,.14,.86,.14,1.44s-.05,1.03-.14,1.44h-5.76c-.1-.41-.14-.89-.14-1.44s.05-1.06,.14-1.44h4.32c-.1-.41-.14-.89-.14-1.44s.05-1.06,.14-1.44h1.44c-.1-.41-.14-.89-.14-1.44s.05-1.06,.14-1.44h-1.44c-.1-.41-.14-.89-.14-1.44s.05-1.06,.14-1.44h1.44c-.1-.41-.14-.89-.14-1.44s.05-1.06,.14-1.44c-.1-.41-.14-.89-.14-1.44s.05-1.06,.14-1.44h-4.68c.1,.38,.14,.86,.14,1.44s-.05,1.03-.14,1.44h-1.08c.1,.38,.14,.86,.14,1.44s-.05,1.03-.14,1.44h1.08c.1,.38,.14,.86,.14,1.44s-.05,1.03-.14,1.44h3.24c.1,.38,.14,.86,.14,1.44s-.05,1.03-.14,1.44h-4.32c-.1-.41-.14-.89-.14-1.44s.05-1.06,.14-1.44h-1.8c-.1-.41-.14-.89-.14-1.44s.05-1.06,.14-1.44h-1.08c-.1-.41-.14-.89-.14-1.44s.05-1.06,.14-1.44h1.08c-.1-.41-.14-.89-.14-1.44s.05-1.06,.14-1.44h1.8c-.1-.41-.14-.89-.14-1.44s.05-1.06,.14-1.44h8.64c.1,.38,.14,.86,.14,1.44s-.05,1.03-.14,1.44c.1,.38,.14,.86,.14,1.44Z" fill="#fff"/><path d="M237.54,64.88h-1.44c.1,.38,.14,.86,.14,1.44s-.05,1.03-.14,1.44h-7.92c-.1-.41-.14-.89-.14-1.44s.05-1.06,.14-1.44h6.48c-.1-.41-.14-.89-.14-1.44s.05-1.06,.14-1.44h-5.76c-.1-.41-.14-.89-.14-1.44s.05-1.06,.14-1.44h-1.44c-.1-.41-.14-.89-.14-1.44s.05-1.06,.14-1.44h1.44c-.1-.41-.14-.89-.14-1.44s.05-1.06,.14-1.44h7.92c.1,.38,.14,.86,.14,1.44s-.05,1.03-.14,1.44h-6.48c.1,.38,.14,.86,.14,1.44s-.05,1.03-.14,1.44h5.76c.1,.38,.14,.86,.14,1.44s-.05,1.03-.14,1.44h1.44c.1,.38,.14,.86,.14,1.44s-.05,1.03-.14,1.44Z" fill="#fff"/><path d="M267.06,62h-1.44c.1,.38,.14,.86,.14,1.44s-.05,1.03-.14,1.44h-1.44c.1,.38,.14,.86,.14,1.44s-.05,1.03-.14,1.44h-5.76c.1,.38,.14,.86,.14,1.44s-.05,1.03-.14,1.44c.1,.38,.14,.86,.14,1.44s-.05,1.03-.14,1.44h-2.88c-.1-.41-.14-.89-.14-1.44s.05-1.06,.14-1.44c-.1-.41-.14-.89-.14-1.44s.05-1.06,.14-1.44c-.1-.41-.14-.89-.14-1.44s.05-1.06,.14-1.44c-.1-.41-.14-.89-.14-1.44s.05-1.06,.14-1.44c-.1-.41-.14-.89-.14-1.44s.05-1.06,.14-1.44c-.1-.41-.14-.89-.14-1.44s.05-1.06,.14-1.44c-.1-.41-.14-.89-.14-1.44s.05-1.06,.14-1.44h2.88c.1,.38,.14,.86,.14,1.44s-.05,1.03-.14,1.44h1.44c.1,.38,.14,.86,.14,1.44s-.05,1.03-.14,1.44h-1.44c.1,.38,.14,.86,.14,1.44s-.05,1.03-.14,1.44c.1,.38,.14,.86,.14,1.44s-.05,1.03-.14,1.44h4.32c-.1-.41-.14-.89-.14-1.44s.05-1.06,.14-1.44h1.44c-.1-.41-.14-.89-.14-1.44s.05-1.06,.14-1.44h-1.44c-.1-.41-.14-.89-.14-1.44s.05-1.06,.14-1.44h-2.88c-.1-.41-.14-.89-.14-1.44s.05-1.06,.14-1.44h4.32c.1,.38,.14,.86,.14,1.44s-.05,1.03-.14,1.44h1.44c.1,.38,.14,.86,.14,1.44s-.05,1.03-.14,1.44h1.44c.1,.38,.14,.86,.14,1.44s-.05,1.03-.14,1.44Z" fill="#fff"/><path d="M281.61,57.68c0,.55-.05,1.03-.14,1.44h-2.88c-.1-.41-.14-.89-.14-1.44s.05-1.06,.14-1.44h-2.52c.1,.38,.14,.86,.14,1.44s-.05,1.03-.14,1.44h-1.08c.09,.38,.14,.86,.14,1.44s-.05,1.03-.14,1.44c.09,.38,.14,.86,.14,1.44s-.05,1.03-.14,1.44h2.16c.1,.38,.14,.86,.14,1.44s-.05,1.03-.14,1.44h-7.2c-.1-.41-.14-.89-.14-1.44s.05-1.06,.14-1.44h2.16c-.1-.41-.14-.89-.14-1.44s.05-1.06,.14-1.44c-.1-.41-.14-.89-.14-1.44s.05-1.06,.14-1.44c-.1-.41-.14-.89-.14-1.44s.05-1.06,.14-1.44h-2.16c-.1-.41-.14-.89-.14-1.44s.05-1.06,.14-1.44h3.6c.1,.38,.14,.86,.14,1.44s-.05,1.03-.14,1.44h1.44c-.1-.41-.14-.89-.14-1.44s.05-1.06,.14-1.44h5.4c.1,.38,.14,.86,.14,1.44s-.05,1.03-.14,1.44h1.08c.1,.38,.14,.86,.14,1.44Z" fill="#fff"/><path d="M295.86,62h-1.08c.1,.38,.14,.86,.14,1.44s-.05,1.03-.14,1.44h-1.8c.1,.38,.14,.86,.14,1.44s-.05,1.03-.14,1.44h-5.76c-.1-.41-.14-.89-.14-1.44s.05-1.06,.14-1.44h-1.8c-.1-.41-.14-.89-.14-1.44s.05-1.06,.14-1.44h-1.08c-.1-.41-.14-.89-.14-1.44s.05-1.06,.14-1.44h1.08c-.1-.41-.14-.89-.14-1.44s.05-1.06,.14-1.44h1.8c-.1-.41-.14-.89-.14-1.44s.05-1.06,.14-1.44h5.76c.1,.38,.14,.86,.14,1.44s-.05,1.03-.14,1.44h1.8c.1,.38,.14,.86,.14,1.44s-.05,1.03-.14,1.44h1.08c.1,.38,.14,.86,.14,1.44s-.05,1.03-.14,1.44Zm-2.88,0c-.1-.41-.14-.89-.14-1.44s.05-1.06,.14-1.44h-1.08c-.1-.41-.14-.89-.14-1.44s.05-1.06,.14-1.44h-3.6c.1,.38,.14,.86,.14,1.44s-.05,1.03-.14,1.44h-1.08c.1,.38,.14,.86,.14,1.44s-.05,1.03-.14,1.44h1.08c.1,.38,.14,.86,.14,1.44s-.05,1.03-.14,1.44h3.6c-.1-.41-.14-.89-.14-1.44s.05-1.06,.14-1.44h1.08Z" fill="#fff"/><path d="M307.53,54.8c0,.55-.05,1.03-.14,1.44,.1,.38,.14,.86,.14,1.44s-.05,1.03-.14,1.44c.1,.38,.14,.86,.14,1.44s-.05,1.03-.14,1.44c.1,.38,.14,.86,.14,1.44s-.05,1.03-.14,1.44c.1,.38,.14,.86,.14,1.44s-.05,1.03-.14,1.44h-1.44c.1,.38,.14,.86,.14,1.44s-.05,1.03-.14,1.44h-1.44c.1,.38,.14,.86,.14,1.44s-.05,1.03-.14,1.44h-4.32c-.1-.41-.14-.89-.14-1.44s.05-1.06,.14-1.44h2.88c-.1-.41-.14-.89-.14-1.44s.05-1.06,.14-1.44h1.44c-.1-.41-.14-.89-.14-1.44s.05-1.06,.14-1.44c-.1-.41-.14-.89-.14-1.44s.05-1.06,.14-1.44c-.1-.41-.14-.89-.14-1.44s.05-1.06,.14-1.44c-.1-.41-.14-.89-.14-1.44s.05-1.06,.14-1.44h-2.88c-.1-.41-.14-.89-.14-1.44s.05-1.06,.14-1.44h5.76c.1,.38,.14,.86,.14,1.44Zm-3.02-4.32c-.1-.41-.14-.89-.14-1.44s.05-1.06,.14-1.44h2.88c.1,.38,.14,.86,.14,1.44s-.05,1.03-.14,1.44h-2.88Z" fill="#fff"/><path d="M324.66,59.13c.1,.38,.14,.86,.14,1.44s-.05,1.03-.14,1.44h-7.56c.1,.38,.14,.86,.14,1.44s-.05,1.03-.14,1.44h6.12c.1,.38,.14,.86,.14,1.44s-.05,1.03-.14,1.44h-7.2c-.1-.41-.14-.89-.14-1.44s.05-1.06,.14-1.44h-1.8c-.1-.41-.14-.89-.14-1.44s.05-1.06,.14-1.44h-1.08c-.1-.41-.14-.89-.14-1.44s.05-1.06,.14-1.44h1.08c-.1-.41-.14-.89-.14-1.44s.05-1.06,.14-1.44h1.8c-.1-.41-.14-.89-.14-1.44s.05-1.06,.14-1.44h7.2c.1,.38,.14,.86,.14,1.44s-.05,1.03-.14,1.44h1.44c.1,.38,.14,.86,.14,1.44s-.05,1.03-.14,1.44Zm-3.02-1.44c0-.58,.05-1.06,.14-1.44h-4.68c.1,.38,.14,.86,.14,1.44s-.05,1.03-.14,1.44h4.68c-.1-.41-.14-.89-.14-1.44Z" fill="#fff"/><path d="M339.06,62c.1,.38,.14,.86,.14,1.44s-.05,1.03-.14,1.44h-1.44c.1,.38,.14,.86,.14,1.44s-.05,1.03-.14,1.44h-7.2c-.1-.41-.14-.89-.14-1.44s.05-1.06,.14-1.44h-1.44c-.1-.41-.14-.89-.14-1.44s.05-1.06,.14-1.44h-1.44c-.1-.41-.14-.89-.14-1.44s.05-1.06,.14-1.44h1.44c-.1-.41-.14-.89-.14-1.44s.05-1.06,.14-1.44h1.44c-.1-.41-.14-.89-.14-1.44s.05-1.06,.14-1.44h7.2c.1,.38,.14,.86,.14,1.44s-.05,1.03-.14,1.44h1.44c.1,.38,.14,.86,.14,1.44s-.05,1.03-.14,1.44h-2.88c-.1-.41-.14-.89-.14-1.44s.05-1.06,.14-1.44h-4.32c.1,.38,.14,.86,.14,1.44s-.05,1.03-.14,1.44h-1.44c.1,.38,.14,.86,.14,1.44s-.05,1.03-.14,1.44h1.44c.1,.38,.14,.86,.14,1.44s-.05,1.03-.14,1.44h4.32c-.1-.41-.14-.89-.14-1.44s.05-1.06,.14-1.44h2.88Z" fill="#fff"/><path d="M352.02,64.88c.1,.38,.14,.86,.14,1.44s-.05,1.03-.14,1.44h-5.76c-.1-.41-.14-.89-.14-1.44s.05-1.06,.14-1.44h-1.44c-.1-.41-.14-.89-.14-1.44s.05-1.06,.14-1.44c-.1-.41-.14-.89-.14-1.44s.05-1.06,.14-1.44c-.1-.41-.14-.89-.14-1.44s.05-1.06,.14-1.44h-2.88c-.1-.41-.14-.89-.14-1.44s.05-1.06,.14-1.44h2.88c-.1-.41-.14-.89-.14-1.44s.05-1.06,.14-1.44c-.1-.41-.14-.89-.14-1.44s.05-1.06,.14-1.44h2.88c.1,.38,.14,.86,.14,1.44s-.05,1.03-.14,1.44c.1,.38,.14,.86,.14,1.44s-.05,1.03-.14,1.44h4.32c.1,.38,.14,.86,.14,1.44s-.05,1.03-.14,1.44h-4.32c.1,.38,.14,.86,.14,1.44s-.05,1.03-.14,1.44c.1,.38,.14,.86,.14,1.44s-.05,1.03-.14,1.44c.1,.38,.14,.86,.14,1.44s-.05,1.03-.14,1.44h4.32Z" fill="#fff"/></g></g></g></svg>